# xmcd
#
# Track frame offsets:
#	150
#	11728
#	22631
#	34462
#	45646
#	60503
#	72985
#	86146
#	103744
#	117334
#	132513
#	144294
#
# Disc length: 2098 seconds
#
# Revision: 1
# Processed by: cddbd v1.5.2PL0 Copyright (c) Steve Scherf et al.
# Submitted via: audiograbber 1.83.01
#
DISCID=a308300c
DTITLE=Disc 1 - Best of Country
DYEAR=1900
DGENRE=Country
TTITLE0=Merle Haggard - Okie From Muskogee
TTITLE1=Don Gibson - Oh Lonesome Me
TTITLE2=Willie Nelson - Night Life
TTITLE3=Jack Greene - There Goes My Everything
TTITLE4=Jeanne Pruett - Satin Sheets
TTITLE5=Faron Young - Four in the Morning
TTITLE6=Porter Wagoner - Carroll County Accident
TTITLE7=Juice Newton - A Little Love
TTITLE8=Moe Bandy - I Just Started Hatin' Cheatin' Songs
TTITLE9=Porter Wagoner - Skid Roe Joe
TTITLE10=Holly Dunn - That What Your Love Does To Me
TTITLE11=Alabama - Patches
EXTD=
EXTT0=
EXTT1=
EXTT2=
EXTT3=
EXTT4=
EXTT5=
EXTT6=
EXTT7=
EXTT8=
EXTT9=
EXTT10=
EXTT11=
PLAYORDER=
